<?xml version="1.0" encoding="UTF-8"?>
<svg id="Layer_1" data-name="Layer 1" xmlns="http://www.w3.org/2000/svg" xmlns:xlink="http://www.w3.org/1999/xlink" viewBox="0 0 1000 1000">
  <defs>
    <style>
      .cls-1 {
        fill: #02205f;
      }

      .cls-2 {
        fill: url(#linear-gradient);
      }

      .cls-3 {
        fill: #763f98;
      }
    </style>
    <linearGradient id="linear-gradient" x1="768.05" y1="174" x2="483.47" y2="372.45" gradientUnits="userSpaceOnUse">
      <stop offset="0" stop-color="#763f98"/>
      <stop offset="1" stop-color="#02205f"/>
    </linearGradient>
  </defs>
  <g>
    <g>
      <path class="cls-1" d="M489.45,360.29c-.33,.14-.62,.33-.95,.47-1.61,.8-3.27,1.61-4.92,2.46-14.06,6.81-30.1,14.29-47.09,21.34-.09,0-.19,.09-.28,.09-27.54,11.45-57.26,21.77-83.67,26.6-.57,.09-1.04,.19-1.56,.28-9.51,1.7-25.98,4.31-44.72,4.26-2.08,0-4.16-.05-6.29-.14-10.13-.38-20.68-1.61-31.09-4.26-1.18-.28-2.41-.62-3.64-.99-7.29-2.08-14.39-4.92-21.06-8.66-7.34-4.12-14.25-9.37-20.21-16-10.17-11.22-16.52-24.09-19.88-37.86-4.69-19.36-3.6-40.46,.95-61.15-6.01,23.8-9.18,48.7-9.18,74.35,0,33.74,5.49,66.16,15.62,96.5,16.09,5.96,33.79,7.86,51.73,7.29,15.05-.43,30.29-2.51,44.77-5.3h.05c3.08-.61,6.06-1.18,9.04-1.85,4.54-.99,9.04-1.99,13.35-3.03,7.9-1.85,20.73-7.24,35.92-14.48,33.7-16,78.8-40.94,105.63-56.03l.05-.05c1.47-.85,2.84-1.61,4.16-2.37,.47-.24,.9-.19,1.23,0,.71,.43,1.04,1.51,.19,2.18-8.14,6.11-18.5,13.87-29.82,22.53-.09,.05-.19,.09-.24,.19h-.05s-.05,.09-.09,.14c-13.54,10.41-28.35,21.86-42.03,32.89-.05,.05-.14,.09-.19,.19-8.85,7.15-17.18,14.01-24.47,20.26-10.65,9.28-18.93,17.08-22.76,22.05-4.12,5.4-8.09,10.84-11.93,16.42-.99,1.42-1.99,2.79-2.84,4.21h-.05c-1.85,2.79-3.69,5.58-5.44,8.42-6.96,11.22-13.06,22.72-17.79,34.36-7.1,17.37-11.12,35.02-10.55,52.58,36.35,29.34,79.6,50.5,126.93,60.58-9.75-3.36-18.93-7.81-27.17-13.44-9.65-6.53-17.98-14.72-24.66-24.75-7.19-10.88-11.12-23.33-12.45-36.25-.8-7.34-.66-14.86,.14-22.29,.19-1.28,.28-2.46,.52-3.74v-.05c.95-6.91,2.6-13.68,4.73-20.21,.19-.62,.43-1.28,.66-1.89,.76-2.41,1.61-4.73,2.56-7.1,6.2-16,14.72-31.28,24.61-45.76,7.38-10.74,15.48-21.11,23.99-31.09,10.7-12.59,22.05-24.56,33.32-35.92h.09c3.03-3.17,6.06-6.2,9.18-9.23,1.18-1.18,7.86-7.53,16.66-15.71,2.79-2.6,5.77-5.4,8.85-8.28,1.7-1.56,3.36-3.12,5.11-4.73,0,0,.09-.05,.19-.19,1.23-1.18,9.18-8.47,9.18-8.47,0,0,.95-22.15-22.34-9.37Z"/>
      <path class="cls-1" d="M597.21,302.13l-66.92,168.86c-1.8,4.5-8.19,4.07-9.37-.57l-18.17-91.67-.14-.62-2.22-11.31-11.17-5.68-.71-.38-83.25-42.74c-4.12-2.37-2.79-8.66,1.94-9.18l180.12-19.69c7.1-.8,12.49,6.29,9.89,12.97Z"/>
    </g>
    <path class="cls-1" d="M587.32,289.16l-180.12,19.69c-4.73,.52-6.06,6.81-1.94,9.18l83.25,42.74c-1.61,.8-3.27,1.61-4.92,2.46-14.06,6.81-30.1,14.29-47.09,21.34-.09,0-.19,.09-.28,.09-27.54,11.45-57.26,21.77-83.67,26.6-.57,.09-1.04,.19-1.56,.28-9.51,1.7-25.98,4.31-44.72,4.26-2.08,0-4.16-.05-6.29-.14-10.13-.38-20.68-1.61-31.09-4.26-1.18-.28-2.41-.62-3.64-.99-7.29-2.08-14.39-4.92-21.06-8.66-7.34-4.12-14.25-9.37-20.21-16-10.17-11.22-16.52-24.09-19.88-37.86-4.69-19.36-3.6-40.46,.95-61.15-6.01,23.8-9.18,48.7-9.18,74.35,0,33.74,5.49,66.16,15.62,96.5,16.09,5.96,33.79,7.86,51.73,7.29,15.05-.43,30.29-2.51,44.77-5.3h.05c3.08-.61,6.06-1.18,9.04-1.85,4.54-.99,9.04-1.99,13.35-3.03,7.9-1.85,20.73-7.24,35.92-14.48,33.7-16,78.8-40.94,105.63-56.03l.05-.05c1.47-.85,2.84-1.61,4.16-2.37,.47-.24,.9-.19,1.23,0,.71,.43,1.04,1.51,.19,2.18-8.14,6.11-18.5,13.87-29.82,22.53-.09,.05-.19,.09-.24,.19h-.05s-.05,.09-.09,.14c-13.54,10.41-28.35,21.86-42.03,32.89-.05,.05-.14,.09-.19,.19-8.85,7.15-17.18,14.01-24.47,20.26-10.65,9.28-18.93,17.08-22.76,22.05-4.12,5.4-8.09,10.84-11.93,16.42-.99,1.42-1.99,2.79-2.84,4.21h-.05c-1.85,2.79-3.69,5.58-5.44,8.42-6.96,11.22-13.06,22.72-17.79,34.36-7.1,17.37-11.12,35.02-10.55,52.58,36.35,29.34,79.6,50.5,126.93,60.58-9.75-3.36-18.93-7.81-27.17-13.44-9.65-6.53-17.98-14.72-24.66-24.75-7.19-10.88-11.12-23.33-12.45-36.25-.8-7.34-.66-14.86,.14-22.29,.19-1.28,.28-2.46,.52-3.74v-.05c.95-6.91,2.6-13.68,4.73-20.21,.19-.62,.43-1.28,.66-1.89,.76-2.41,1.61-4.73,2.56-7.1,6.2-16,14.72-31.28,24.61-45.76,7.38-10.74,15.48-21.11,23.99-31.09,10.7-12.59,22.05-24.56,33.32-35.92h.09c3.03-3.17,6.06-6.2,9.18-9.23,1.18-1.18,7.86-7.53,16.66-15.71,2.79-2.6,5.77-5.4,8.85-8.28,1.7-1.56,3.36-3.12,5.11-4.73,0,0,.09-.05,.19-.19l.14,.62,18.17,91.67c1.18,4.64,7.57,5.06,9.37,.57l66.92-168.86c2.6-6.67-2.79-13.77-9.89-12.97Zm-377.85-19.5c-1.7,5.63-3.22,11.31-4.45,17.08,5.02-20.07,12.02-39.33,20.78-57.6-6.2,12.45-11.93,26.22-16.33,40.51Z"/>
    <path class="cls-2" d="M848.55,267.82c-8.19-30.81-20.4-59.96-36.02-86.94-15.81-27.35-35.12-52.44-57.31-74.63h-.05c-22.2-22.2-47.23-41.5-74.59-57.31-22.81-13.2-47.18-23.95-72.79-31.9-.76-.24-1.47-.52-2.22-.76-16.75-5.3-33.89-9.42-51.4-12.26-.52-.09-1.04-.19-1.56-.24-17.08-2.51-34.55-3.79-52.29-3.79C316.33,0,164.51,137.62,142.08,315.52c-1.89,14.96-2.84,30.15-2.84,45.57,0,172.98,121.63,317.51,284,352.81,24.85,5.44,50.64,8.28,77.09,8.28,31.14,0,61.38-3.93,90.25-11.36,2.18-.57,4.35-1.14,6.53-1.75,17.13-4.92,33.84-11.22,50.02-18.79,11.45-5.11,22.62-10.74,33.41-16.99,27.35-15.81,52.44-35.12,74.63-57.36,22.2-22.15,41.5-47.23,57.36-74.59,15.57-26.98,27.78-56.13,35.97-86.94,8-29.77,12.26-61.05,12.26-93.33s-4.26-63.56-12.21-93.28Zm-232.02,368.39c-.14,.09-.32,.14-.46,.19-35.6,15.04-74.72,23.3-115.74,23.3-21.58,0-42.6-2.27-62.84-6.68-46.41-9.89-88.83-30.63-124.47-59.4-44-35.46-77.69-83.16-95.97-137.88-9.93-29.75-15.32-61.54-15.32-94.63,0-25.15,3.11-49.56,9-72.91,1.21-5.66,2.69-11.23,4.36-16.75,4.32-14.02,9.93-27.52,16.01-39.73,.28-.51,.51-1.02,.79-1.49,48.5-99.31,150.5-167.72,268.43-167.72,164.89,0,298.59,133.7,298.59,298.59,0,123.68-75.23,229.77-182.39,275.11Z"/>
  </g>
  <g>
    <path class="cls-1" d="M306.41,790.44h-13.11c-3,0-5.43,2.43-5.43,5.43v28.16c0,3-2.43,5.43-5.43,5.43l-46.52-.04-.04-15.05c-.04-.26-.04-.53-.04-.79-.18-2.07-.53-4.06-1.06-6-2.3-8.78-8.03-16.2-15.63-20.75-.04-.04-.13-.13-.22-.13-5.16-3.09-11.21-4.86-17.66-4.86s-12.85,1.85-18.14,5.12c0,0-.04,0-.04,.04-.09,.04-.18,.09-.26,.13-2.21,1.41-4.28,3.05-6.14,4.94-1.46,1.46-2.78,3.05-3.97,4.72-3.09,4.46-5.17,9.71-5.87,15.41v.04c0,.09-.04,.22-.04,.35-.04,.22-.04,.44-.09,.66-.09,1.1-.13,2.16-.13,3.27,0,1.19,.04,2.34,.18,3.49v.22c.04,.27,.09,.49,.13,.75v.31s0,.09,.04,.18c.04,.18,.04,.4,.09,.62,2.12,13.15,11.61,23.79,24.06,27.63,1.54,.44,3.13,.84,4.72,1.1,10.02,1.02,15.89,.09,15.89,.09l-.26,5.56c-.13,2.91-2.52,5.16-5.43,5.16l-33.99-.09c-3,0-5.43,2.43-5.43,5.43v10.64c0,3,2.43,5.43,5.43,5.43h38.1c17.3,0,26-7.99,26-23.97l-.04-8.17c10.59,0,38.33-.02,57.2-.03,10.39,0,18.78-8.45,18.74-18.84l-.14-36.22c0-3-2.43-5.39-5.43-5.39Zm-91.47,26.57c0,.13,0,.31-.04,.44v.4s0,.04-.04,.09c-.04,.44-.09,.88-.22,1.32-.04,.4-.13,.75-.22,1.06-.04,.09-.04,.13-.04,.22-.04,.04-.04,.13-.09,.18-.09,.4-.27,.75-.4,1.15-.13,.31-.26,.57-.44,.88-.44,.88-.97,1.72-1.63,2.47-.09,.18-.22,.31-.35,.44-.09,.09-.13,.18-.22,.22-.31,.35-.66,.66-1.02,.97-.18,.13-.35,.27-.49,.44-1.19,.93-2.47,1.63-3.93,2.12-.18,.09-.4,.13-.57,.22-.4,.13-.79,.22-1.24,.31-.35,.04-.75,.13-1.1,.18h-.26c-.44,.09-.88,.09-1.37,.09-.44,0-.84,0-1.24-.09-.13,.04-.27,0-.35,0-.35-.04-.66-.09-.97-.13-.13-.04-.27-.04-.44-.13-.31-.04-.66-.13-1.02-.22-.04-.04-.09-.04-.13-.04-.26-.09-.53-.18-.75-.31h-.09c-.26-.09-.48-.18-.71-.31-.66-.26-1.28-.62-1.9-1.06-.31-.18-.57-.4-.88-.62-.31-.22-.57-.49-.88-.79l-.4-.35s-.09-.04-.13-.13c-.18-.18-.35-.35-.49-.53-.4-.48-.75-.97-1.1-1.46-.18-.27-.31-.49-.44-.71-.04-.09-.09-.13-.09-.22-.09-.09-.13-.22-.18-.31-.35-.71-.66-1.41-.93-2.21,0-.04,0-.13-.04-.18-.18-.62-.31-1.28-.4-1.94v-.04s-.04-.09-.04-.13c0-.09,0-.18-.04-.31v-.04c-.04-.49-.04-.93-.04-1.41,0-.44,0-.88,.04-1.28v-.13s0-.09,.04-.13v-.18c.04-.35,.09-.71,.18-1.02,.04-.31,.09-.53,.18-.79,.09-.27,.13-.53,.26-.8,.04-.26,.13-.48,.26-.75t.04-.09c.09-.27,.22-.53,.35-.79,.18-.4,.4-.75,.62-1.15,.22-.35,.44-.71,.75-1.06,.22-.35,.48-.66,.75-.97,.27-.31,.57-.62,.88-.88,.04-.09,.09-.09,.09-.09,.27-.22,.49-.44,.75-.66,.44-.35,.84-.62,1.28-.88v-.04h.04s.13-.04,.18-.09c.18-.09,.31-.18,.49-.27,.31-.18,.62-.31,.88-.44,.22-.09,.4-.18,.62-.27,.31-.13,.71-.27,1.06-.35,.31-.09,.62-.18,.93-.22,.57-.18,1.19-.26,1.81-.31,.31-.04,.66-.04,1.02-.04h.18c.4,0,.79,0,1.19,.04,.13,0,.22,.04,.35,.04,.4,.04,.8,.09,1.19,.18,.4,.09,.79,.18,1.19,.31,.18,.09,.4,.13,.62,.22,.26,.09,.57,.18,.84,.31,.27,.09,.53,.22,.79,.4,.27,.13,.53,.26,.79,.4t.09,.04c.09,.04,.18,.13,.27,.18,.71,.44,1.37,.97,1.99,1.54,.22,.22,.49,.44,.71,.71,.04,.04,.13,.13,.13,.18,.18,.18,.35,.4,.57,.62,.35,.49,.75,.97,1.06,1.55,.13,.18,.22,.44,.35,.62,.4,.84,.75,1.68,1.02,2.6,.04,.04,.04,.13,.09,.22,.09,.48,.22,.93,.26,1.41,.04,.22,.09,.4,.09,.62v.09c.04,.09,.04,.13,.04,.18v.18c.04,.18,.04,.35,.04,.53v1.02Z"/>
    <path class="cls-1" d="M909.72,756.72h-13.33c-3,0-5.43,2.43-5.43,5.47l.18,80.87,.04,4.02c0,3,2.43,5.43,5.43,5.39l13.15-.09c3,0,5.39-2.43,5.39-5.43v-84.89c-.04-2.96-2.47-5.34-5.43-5.34Z"/>
    <path class="cls-1" d="M831.05,863.35h34.76c2.48,0,4.5,2.02,4.5,4.5v10.97c0,2.48-2.02,4.5-4.5,4.5h-34.76c-2.48,0-4.5-2.02-4.5-4.5v-10.97c0-2.48,2.02-4.5,4.5-4.5Z"/>
    <path class="cls-1" d="M592.52,756.72h34.76c2.48,0,4.5,2.02,4.5,4.5v10.97c0,2.48-2.02,4.5-4.5,4.5h-34.76c-2.48,0-4.5-2.02-4.5-4.5v-10.97c0-2.48,2.02-4.5,4.5-4.5Z"/>
    <path class="cls-1" d="M526.13,863.35h34.76c2.48,0,4.5,2.02,4.5,4.5v10.97c0,2.48-2.02,4.5-4.5,4.5h-34.76c-2.48,0-4.5-2.02-4.5-4.5v-10.97c0-2.48,2.02-4.5,4.5-4.5Z"/>
    <path class="cls-1" d="M103.44,863.35h34.76c2.48,0,4.5,2.02,4.5,4.5v10.97c0,2.48-2.02,4.5-4.5,4.5h-34.76c-2.48,0-4.5-2.02-4.5-4.5v-10.97c0-2.48,2.02-4.5,4.5-4.5Z"/>
    <path class="cls-1" d="M294.28,863.35h10.82c2.45,0,4.44,1.99,4.44,4.44v10.82c0,2.45-1.99,4.44-4.44,4.44h-10.82c-2.45,0-4.44-1.99-4.44-4.44v-10.82c0-2.45,1.99-4.44,4.44-4.44Z"/>
    <path class="cls-1" d="M271.18,863.35h10.82c2.45,0,4.44,1.99,4.44,4.44v10.82c0,2.45-1.99,4.44-4.44,4.44h-10.82c-2.45,0-4.44-1.99-4.44-4.44v-10.82c0-2.45,1.99-4.44,4.44-4.44Z"/>
    <rect class="cls-1" x="243.63" y="863.35" width="19.7" height="19.7" rx="4.44" ry="4.44"/>
    <path class="cls-1" d="M166.36,817.47h.02c-.02-.21-.02-.44-.02-.65v.65Z"/>
    <path class="cls-1" d="M158.44,817.64h.04c-.04-.27-.04-.56-.04-.84v.84Z"/>
    <path class="cls-1" d="M626.19,794.37h-12.76c-3.07,0-5.56,2.49-5.56,5.56v18.76c0,6.19-5.02,11.21-11.21,11.21h-.04c-6.19,0-11.21-5.02-11.21-11.21v-23c-.27-2.82-2.65-4.99-5.52-4.99h-12.8c-3.07,0-5.56,2.49-5.56,5.56v28.03c0,3.1-2.51,5.61-5.61,5.61h-29.21c-3.1,0-5.61-2.51-5.61-5.61v-24.32c0-3.1-2.51-5.61-5.61-5.61h-12.93c-2.74,0-5.03,2.08-5.34,4.72v18.96c0,5.87-4.22,11.21-10.06,11.79-6.71,.67-12.37-4.58-12.37-11.15v-21.06c-.84-1.94-2.74-3.27-4.94-3.27h-13.11c-3.1,0-5.61,2.51-5.61,5.61v18.12c0,5.84-4.2,11.17-10.02,11.75-6.69,.67-12.33-4.55-12.34-11.1l-.03-18.95c-.04-3-2.47-5.43-5.43-5.43h-13.29c-3,0-5.43,2.43-5.43,5.43v39.86s-.04,.13-.13,.26c-.79,12.85-11.48,23-24.5,23s-23.44-9.93-24.5-22.51c-.04-.04-.04-.09-.04-.09v-30.46c0-3-2.43-5.43-5.43-5.43h-13.73c-3,0-5.43,2.41-5.43,5.4,0,10.95-.04,31.15-.04,31.54,0,26.84,21.72,48.56,48.51,48.56,37.96,0,47.63-29.97,49.88-40.17,.13-.44,.22-.93,.26-1.37,0-.13,.04-.26,.09-.4,2.6,1.68,5.47,2.82,8.65,3.53,2.56,.57,5.39,.88,8.43,.88,9.84-.4,17.08-3.53,21.76-9.53h.28c3.09,3.7,6.84,6.3,11.21,7.85,3.31,1.15,7.15,1.68,11.61,1.68,9.83-.4,16.95-3.46,21.37-9.26v.33c0,4.2,3.4,7.6,7.6,7.6h52.35c2.22,0,4.22-.96,5.6-2.48,1.18-1.3,1.92-3.02,1.98-4.91,.02-.03,.05-.05,.08-.08h.18c.79,4.28,4.55,7.46,9.01,7.46h23.39c10.37,0,18.77-8.4,18.77-18.77v-32.35c0-3.1-2.51-5.61-5.61-5.61Z"/>
    <path class="cls-1" d="M875.95,794.37h-13.07c-3,0-5.43,2.43-5.43,5.43v24.68c0,3-2.43,5.43-5.43,5.43h-16.95c-3,0-5.43-2.43-5.43-5.43v-28.38c0-2.96-2.42-5.39-5.39-5.39h-13.11c-2.96,0-5.39,2.42-5.39,5.39v22.64c0,6.17-5,11.17-11.17,11.17h-.04c-6.17,0-11.17-5-11.17-11.17v-22.65c0-2.96-2.42-5.39-5.39-5.39h-12.93c-2.96,0-5.39,2.42-5.39,5.39v22.03c0,4.24-2.21,8.17-5.65,10.24-1.28,.79-2.78,1.32-4.37,1.5-6.67,.66-12.32-4.59-12.32-11.12v-22.65c0-.62-.09-1.19-.31-1.72-.71-2.12-2.74-3.66-5.08-3.66h-13.42c-2.96,0-5.39,2.42-5.39,5.39v28.34c0,3.05-2.43,5.47-5.43,5.47,0,0-37.21-.13-37.39-.18-2.74-.26-4.9-2.56-4.9-5.43v-62.15c0-3-2.43-5.43-5.43-5.43h-13.07c-3,0-5.43,2.43-5.43,5.43l-.09,48.43-.09,28.03c0,6.89,5.61,12.49,12.49,12.49h71.42c4.19,0,7.59-3.4,7.59-7.59v-.35c1.59,2.12,3.53,3.84,5.83,5.21,.26,.18,.48,.31,.75,.4,.53,.35,1.1,.62,1.72,.88,.18,.09,.35,.18,.53,.22,1.59,.75,3.27,1.28,5.08,1.68,2.16,.53,4.55,.79,7.11,.84,.13,.04,.22,.04,.35,.04h.97c.31,0,.62-.04,.93-.09,.22,.04,.4,0,.57,0,9.18-.66,15.94-3.84,20.39-9.58,3.13,3.75,6.93,6.44,11.35,7.99,3.31,1.15,7.19,1.68,11.65,1.68,9.93-.4,17.13-3.53,21.54-9.54,1.99,2.34,4.15,4.19,6.44,5.52,3.09,1.81,6.4,2.69,9.93,2.69l24.64-.02c10.36-.01,18.75-8.41,18.75-18.77v-32.5c0-3-2.43-5.43-5.43-5.43Z"/>
    <path class="cls-1" d="M156.59,796.1c-.02-2.99-2.45-5.41-5.44-5.41h-13.1c-2.76,0-4.86,2.07-5.19,4.73v21.53c0,5.83-3.94,11.17-9.66,12.26-7.7,1.48-14.43-4.38-14.43-11.82v-55.25c0-3-2.43-5.43-5.43-5.43h-13.04c-3,0-5.43,2.42-5.43,5.42,0,7.11,0,46.14-.02,70.02,0,10.37,8.4,18.75,18.77,18.75h34.33c10.39,0,18.81-8.44,18.77-18.84l-.13-35.98Z"/>
  </g>
  <g>
    <path class="cls-3" d="M183.14,972.31c1.11-1.11,1.98-2.4,2.63-3.88,.65-1.48,.97-3.05,.97-4.71v-25.19h-11.44v23.9h-7.38c-1.11,0-2.03-.43-2.77-1.29-.74-.86-.98-1.85-.74-2.95l2.95-14.67-11.44-2.03-3.51,17.44c-.18,1.05-.68,1.89-1.48,2.54-.8,.65-1.72,.97-2.77,.97h-2.86c-.99,0-1.83-.32-2.54-.97-.71-.65-1.09-1.46-1.15-2.45v-17.81h-11.35v29.62c0,2.15-.74,3.98-2.21,5.49-1.48,1.51-3.29,2.26-5.44,2.26h-16.8c-1.29,0-2.52-.25-3.69-.74-1.17-.49-2.18-1.19-3.05-2.08-.86-.89-1.54-1.92-2.03-3.09-.49-1.17-.74-2.4-.74-3.69v-26.21h-11.44v27.87c0,2.95,.57,5.72,1.71,8.31,1.14,2.58,2.68,4.84,4.61,6.78,1.94,1.94,4.2,3.47,6.78,4.61,2.58,1.14,5.35,1.71,8.31,1.71h16.24c2.71,0,5.21-.46,7.52-1.38,2.31-.92,4.32-2.17,6.04-3.74,1.72-1.57,3.06-3.35,4.01-5.35,.95-2,1.43-4.08,1.43-6.23v-1.94c.74,.92,1.62,1.57,2.63,1.94,1.01,.37,2.14,.55,3.37,.55,2.09,0,3.98-.38,5.68-1.15,1.69-.77,3.28-2.11,4.75-4.01,1.35,1.91,2.95,3.25,4.8,4.01,1.85,.77,3.72,1.15,5.63,1.15h6.09c1.66,0,3.24-.32,4.75-.97,1.51-.65,2.81-1.52,3.92-2.63Z"/>
    <rect class="cls-3" x="149.82" y="907.44" width="11.54" height="11.54"/>
    <rect class="cls-3" x="158.22" y="922.39" width="11.54" height="11.35"/>
    <rect class="cls-3" x="141.88" y="922.39" width="11.54" height="11.35"/>
    <rect class="cls-3" x="237.86" y="922.48" width="11.54" height="11.54"/>
    <rect class="cls-3" x="221.53" y="922.48" width="11.54" height="11.54"/>
    <polygon class="cls-3" points="370.66 909.74 365.31 904.39 342.79 930.88 348.7 935.49 370.66 909.74"/>
    <path class="cls-3" d="M415.74,941.81c-1.45-1.44-3.14-2.58-5.08-3.41-1.94-.83-3.98-1.25-6.14-1.25h-34.7l17.44-20.67-8.21-7.57-28.05,32.85,8.21,7.84h46.51c.86,0,1.62,.32,2.26,.97,.65,.65,.97,1.43,.97,2.35v6.55c0,.86-.28,1.57-.83,2.12-.55,.55-1.11,.83-1.66,.83h-84.35c-1.05,0-1.92-.35-2.63-1.06-.71-.71-1.06-1.65-1.06-2.81v-19.56h-11.44v19.75c0,1.05-.35,1.92-1.06,2.63s-1.58,1.06-2.63,1.06h-3.6c-1.11,0-2.03-.43-2.77-1.29-.74-.86-.98-1.88-.74-3.04l2.95-14.58-11.44-2.03-3.41,17.35c-.18,1.05-.66,1.91-1.43,2.58-.77,.68-1.68,1.01-2.72,1.01h-3.14c-.86,0-1.68-.37-2.45-1.11-.77-.74-1.15-1.63-1.15-2.68v-17.26h-11.44v17.26c0,1.05-.35,1.92-1.06,2.63-.71,.71-1.58,1.09-2.63,1.15h-11.07c-1.17,0-2.09-.42-2.77-1.25-.68-.83-.89-1.83-.65-3l2.86-14.58-11.17-2.03-3.6,17.35c-.18,1.05-.68,1.89-1.48,2.54-.8,.65-1.72,.97-2.77,.97h-14.58c-.92,0-1.75-.29-2.49-.88-.74-.58-1.11-1.34-1.11-2.26v-17.9h-11.44v32.76c0,2.34-.66,4.46-1.98,6.37-1.32,1.91-3.09,3.2-5.31,3.88l-14.03,4.52,3.51,10.7,13.47-4.52c2.28-.74,4.37-1.77,6.28-3.09,1.91-1.32,3.55-2.85,4.94-4.57,1.38-1.72,2.48-3.63,3.28-5.72,.8-2.09,1.2-4.34,1.2-6.74v-1.57c.68,.86,1.54,1.49,2.58,1.89,1.05,.4,2.03,.6,2.95,.6h11.63c1.97,0,3.95-.46,5.95-1.38,2-.92,3.58-2.18,4.75-3.78,.92,1.6,2.32,2.86,4.2,3.78,1.88,.92,3.77,1.38,5.68,1.38h9.32c2.15,0,4.18-.42,6.09-1.25,1.91-.83,3.66-2.17,5.26-4.01,1.54,1.85,3.28,3.18,5.21,4.01,1.94,.83,3.98,1.25,6.14,1.25,1.97,0,3.86-.38,5.68-1.15,1.81-.77,3.46-2.14,4.94-4.11,1.35,1.97,3.08,3.34,5.17,4.11,2.09,.77,4.12,1.15,6.09,1.15,2.21,0,4.32-.42,6.32-1.25,2-.83,3.77-2.17,5.31-4.01,1.54,1.85,3.26,3.18,5.17,4.01,1.91,.83,3.97,1.25,6.18,1.25h80.1c2.15,0,4.21-.4,6.18-1.2,1.97-.8,3.71-1.91,5.21-3.32,1.51-1.41,2.71-3.11,3.6-5.08,.89-1.97,1.34-4.09,1.34-6.37v-6.83c0-2.21-.42-4.29-1.25-6.23-.83-1.94-1.97-3.63-3.41-5.08Z"/>
    <path class="cls-3" d="M469.82,941.81c-1.45-1.44-3.12-2.58-5.03-3.41-1.91-.83-3.97-1.25-6.18-1.25h-5.17c-1.79,0-3.51,.31-5.17,.92-1.66,.62-3.15,1.48-4.48,2.58-1.32,1.11-2.45,2.4-3.37,3.88-.92,1.48-1.54,3.11-1.85,4.89l-1.57,8.49c-.43,2.28-.35,4.49,.23,6.64,.58,2.15,1.57,4.08,2.95,5.77,1.38,1.69,3.08,3.04,5.08,4.06,2,1.01,4.2,1.52,6.6,1.52h5.08c1.05,0,2.12-.11,3.23-.32,1.11-.21,2.03-.54,2.77-.97v.46c0,2.34-.71,4.32-2.12,5.95-1.42,1.63-3.2,2.81-5.35,3.55l-13.66,4.61,3.41,10.8,13.47-4.61c2.4-.8,4.57-1.94,6.51-3.41,1.94-1.48,3.6-3.18,4.98-5.12s2.45-4.06,3.18-6.37c.74-2.31,1.11-4.72,1.11-7.24v-20.12c0-2.21-.42-4.29-1.25-6.23-.83-1.94-1.97-3.63-3.41-5.08Zm-6.78,20.63h-12.74c-.68,0-1.23-.26-1.66-.78-.43-.52-.59-1.09-.46-1.71l1.48-7.48c.43-1.54,1.32-2.31,2.68-2.31h7.94c.8,.06,1.46,.37,1.98,.92,.52,.55,.78,1.2,.78,1.94v9.41Z"/>
    <path class="cls-3" d="M591.59,958.75c0,1.05-.35,1.92-1.06,2.63-.71,.71-1.58,1.06-2.63,1.06h-68.38v13.47h18.36v1.38c0,1.91-.68,3.51-2.03,4.8-1.35,1.29-2.98,1.94-4.89,1.94h-17.54c-1.29,0-2.52-.25-3.69-.74-1.17-.49-2.2-1.19-3.09-2.08-.89-.89-1.59-1.92-2.08-3.09-.49-1.17-.74-2.4-.74-3.69v-23.44h-11.44v25.1c0,2.95,.57,5.74,1.71,8.35,1.14,2.61,2.68,4.89,4.61,6.83,1.94,1.94,4.2,3.46,6.78,4.57,2.58,1.11,5.35,1.66,8.31,1.66h15.69c2.77,0,5.35-.48,7.75-1.43,2.4-.95,4.49-2.29,6.28-4.01,1.78-1.72,3.18-3.74,4.2-6.05,1.01-2.31,1.52-4.81,1.52-7.52v-.92c0-.92-.09-1.48-.28-1.66h36.82c2.4,0,4.63-.45,6.69-1.34,2.06-.89,3.88-2.12,5.44-3.69,1.57-1.57,2.8-3.4,3.69-5.49,.89-2.09,1.34-4.31,1.34-6.64v-46.88h-11.35v46.88Z"/>
    <path class="cls-3" d="M671.74,941.91c-1.45-1.44-3.12-2.58-5.03-3.41-1.91-.83-3.97-1.25-6.18-1.25h-5.17c-1.79,0-3.51,.31-5.17,.92-1.66,.62-3.15,1.46-4.48,2.54-1.32,1.08-2.45,2.37-3.37,3.88-.92,1.51-1.54,3.15-1.85,4.94l-1.85,9.51c-.25,1.05-.75,1.88-1.52,2.49-.77,.62-1.68,.92-2.72,.92h-7.57c-1.05,0-1.92-.35-2.63-1.06-.71-.71-1.06-1.58-1.06-2.63v-46.88h-11.44v47.16c0,2.34,.45,4.54,1.34,6.6,.89,2.06,2.11,3.85,3.65,5.35,1.54,1.51,3.34,2.71,5.4,3.6,2.06,.89,4.26,1.34,6.6,1.34h4.89c1.97,0,3.81-.37,5.54-1.11,1.72-.74,3.29-2.06,4.71-3.97,1.41,1.97,2.97,3.31,4.66,4.01,1.69,.71,3.43,1.06,5.21,1.06h10.52c1.66,0,3.23-.32,4.71-.97,1.48-.65,2.77-1.52,3.88-2.63,1.11-1.11,1.98-2.4,2.63-3.88,.65-1.48,.97-3.05,.97-4.71v-10.61c0-2.21-.41-4.28-1.24-6.18-.83-1.91-1.97-3.58-3.41-5.03Zm-6.78,20.53h-12.74c-.68,0-1.23-.24-1.66-.74-.43-.49-.59-1.08-.46-1.75l1.48-7.38c.12-.68,.43-1.23,.92-1.66,.49-.43,1.08-.65,1.75-.65h7.94c.8,0,1.46,.28,1.98,.83,.52,.55,.78,1.2,.78,1.94v9.41Z"/>
    <path class="cls-3" d="M730.11,948.87c-.55-1.17-1.31-2.31-2.26-3.41-.95-1.11-2.14-2.12-3.55-3.05-4.06-2.71-7.72-5.14-10.98-7.29-1.35-.92-2.69-1.81-4.01-2.68-1.32-.86-2.49-1.63-3.51-2.31-1.02-.68-2.17-1.41-3.46-2.21l-6.18,9.51,6.28,4.15c-.06,.06-.18,.12-.37,.18-.12,.06-.29,.15-.51,.28-.22,.12-.48,.28-.78,.46-1.91,1.05-3.62,2.77-5.12,5.17-1.51,2.4-2.29,5.17-2.35,8.31v2.77c0,1.97,.37,4.03,1.11,6.18,.74,2.15,1.86,4.12,3.37,5.91,1.51,1.79,3.38,3.25,5.63,4.38,2.24,1.14,4.88,1.71,7.89,1.71h1.94c3.2,0,5.95-.57,8.26-1.71,2.31-1.14,4.21-2.6,5.72-4.38,1.51-1.78,2.61-3.74,3.32-5.86,.71-2.12,1.06-4.2,1.06-6.23v-3.04c0-1.05-.11-2.15-.32-3.32-.22-1.17-.6-2.34-1.15-3.51Zm-9.97,10.34c0,.25-.08,.63-.23,1.15-.15,.52-.43,1.05-.83,1.57-.4,.52-.95,.98-1.66,1.38-.71,.4-1.58,.6-2.63,.6h-4.8c-.86,0-1.63-.17-2.31-.51-.68-.34-1.23-.78-1.66-1.34-.43-.55-.75-1.12-.97-1.71-.22-.58-.32-1.09-.32-1.52v-3.88c0-.86,.2-1.51,.6-1.94,.4-.43,.78-.8,1.15-1.11l5.07-4.06c.98,.62,1.94,1.2,2.86,1.75,.74,.49,1.48,.95,2.21,1.38,.74,.43,1.26,.74,1.57,.92,.74,.49,1.25,1.06,1.52,1.71,.28,.65,.42,1.22,.42,1.71v3.88Z"/>
    <path class="cls-3" d="M772.52,941.81c-1.45-1.44-3.12-2.58-5.03-3.41-1.91-.83-3.97-1.25-6.18-1.25h-5.17c-1.79,0-3.51,.31-5.17,.92-1.66,.62-3.15,1.48-4.48,2.58-1.32,1.11-2.45,2.4-3.37,3.88-.92,1.48-1.54,3.11-1.85,4.89l-1.57,8.49c-.43,2.28-.35,4.49,.23,6.64,.58,2.15,1.57,4.08,2.95,5.77,1.38,1.69,3.08,3.04,5.07,4.06,2,1.01,4.2,1.52,6.6,1.52h5.08c1.05,0,2.12-.11,3.23-.32,1.11-.21,2.03-.54,2.77-.97v.46c0,2.34-.71,4.32-2.12,5.95-1.42,1.63-3.2,2.81-5.35,3.55l-13.66,4.61,3.41,10.8,13.47-4.61c2.4-.8,4.57-1.94,6.51-3.41,1.94-1.48,3.6-3.18,4.98-5.12,1.38-1.94,2.45-4.06,3.18-6.37,.74-2.31,1.11-4.72,1.11-7.24v-20.12c0-2.21-.42-4.29-1.25-6.23s-1.97-3.63-3.41-5.08Zm-6.78,20.63h-12.74c-.68,0-1.23-.26-1.66-.78-.43-.52-.59-1.09-.46-1.71l1.48-7.48c.43-1.54,1.32-2.31,2.68-2.31h7.94c.8,.06,1.46,.37,1.98,.92,.52,.55,.78,1.2,.78,1.94v9.41Z"/>
    <polygon class="cls-3" points="865.4 909.74 860.05 904.39 837.54 930.88 843.44 935.49 865.4 909.74"/>
    <path class="cls-3" d="M913.9,946.89c-.83-1.94-1.97-3.63-3.41-5.08-1.45-1.44-3.14-2.58-5.08-3.41-1.94-.83-3.98-1.25-6.14-1.25h-34.7l17.44-20.67-8.21-7.57-28.06,32.85,8.21,7.84h46.51c.86,0,1.61,.32,2.26,.97,.65,.65,.97,1.43,.97,2.35v6.55c0,.86-.28,1.57-.83,2.12-.55,.55-1.11,.83-1.66,.83h-86.66c-.92,0-1.75-.29-2.49-.88-.74-.58-1.11-1.34-1.11-2.26v-17.9h-11.44v32.76c0,2.34-.66,4.46-1.98,6.37-1.32,1.91-3.09,3.2-5.31,3.88l-14.03,4.52,3.51,10.7,13.47-4.52c2.27-.74,4.37-1.77,6.27-3.09,1.91-1.32,3.55-2.85,4.94-4.57,1.38-1.72,2.48-3.63,3.28-5.72,.8-2.09,1.2-4.34,1.2-6.74v-1.57c.68,.86,1.54,1.49,2.58,1.89,1.05,.4,2.03,.6,2.95,.6h82.41c2.15,0,4.21-.4,6.18-1.2,1.97-.8,3.71-1.91,5.21-3.32,1.51-1.41,2.71-3.11,3.6-5.08,.89-1.97,1.34-4.09,1.34-6.37v-6.83c0-2.21-.42-4.29-1.25-6.23Z"/>
  </g>
</svg>